<svg width="48" height="48" viewBox="0 0 48 48" fill="none" xmlns="http://www.w3.org/2000/svg">
<path d="M23.9999 4C20.4916 4 17.5703 6.62143 17.08 10H10.2382C10.153 9.98543 10.0667 9.97824 9.98035 9.97852C9.9057 9.98013 9.83127 9.98731 9.75769 10H6.49988C6.30111 9.99719 6.10377 10.0339 5.91931 10.108C5.73486 10.1822 5.56698 10.2922 5.42543 10.4318C5.28387 10.5713 5.17147 10.7376 5.09475 10.921C5.01802 11.1044 4.97852 11.3012 4.97852 11.5C4.97852 11.6988 5.01802 11.8956 5.09475 12.079C5.17147 12.2624 5.28387 12.4287 5.42543 12.5682C5.56698 12.7078 5.73486 12.8178 5.91931 12.892C6.10377 12.9661 6.30111 13.0028 6.49988 13H8.63855L11.1561 39.0293C11.4272 41.8359 13.8117 44 16.6307 44H31.3671C34.1863 44 36.5707 41.8362 36.8417 39.0293L39.3612 13H41.4999C41.6986 13.0028 41.896 12.9661 42.0804 12.892C42.2649 12.8178 42.4328 12.7078 42.5743 12.5682C42.7159 12.4287 42.8283 12.2624 42.905 12.079C42.9817 11.8956 43.0212 11.6988 43.0212 11.5C43.0212 11.3012 42.9817 11.1044 42.905 10.921C42.8283 10.7376 42.7159 10.5713 42.5743 10.4318C42.4328 10.2922 42.2649 10.1822 42.0804 10.108C41.896 10.0339 41.6986 9.99719 41.4999 10H38.244C38.0849 9.97419 37.9227 9.97419 37.7635 10H30.9198C30.4295 6.62143 27.5082 4 23.9999 4ZM23.9999 7C25.879 7 27.4206 8.26816 27.8612 10H20.1386C20.5791 8.26816 22.1207 7 23.9999 7ZM11.6503 13H36.3475L33.8553 38.7402C33.7303 40.0354 32.6678 41 31.3671 41H16.6307C15.3318 41 14.2674 40.0336 14.1425 38.7402L11.6503 13ZM20.4764 17.9785C20.079 17.9847 19.7002 18.1485 19.4233 18.4337C19.1465 18.719 18.9942 19.1025 18.9999 19.5V34.5C18.9971 34.6988 19.0338 34.8961 19.1079 35.0806C19.182 35.265 19.2921 35.4329 19.4316 35.5745C19.5712 35.716 19.7375 35.8284 19.9209 35.9051C20.1043 35.9819 20.3011 36.0214 20.4999 36.0214C20.6987 36.0214 20.8955 35.9819 21.0789 35.9051C21.2622 35.8284 21.4286 35.716 21.5681 35.5745C21.7077 35.4329 21.8177 35.265 21.8918 35.0806C21.966 34.8961 22.0027 34.6988 21.9999 34.5V19.5C22.0028 19.2992 21.9653 19.0999 21.8897 18.9139C21.8142 18.7279 21.702 18.5589 21.56 18.417C21.4179 18.2751 21.2488 18.1632 21.0627 18.0879C20.8766 18.0126 20.6772 17.9754 20.4764 17.9785V17.9785ZM27.4764 17.9785C27.079 17.9847 26.7002 18.1485 26.4233 18.4337C26.1465 18.719 25.9942 19.1025 25.9999 19.5V34.5C25.9971 34.6988 26.0338 34.8961 26.1079 35.0806C26.182 35.265 26.2921 35.4329 26.4316 35.5745C26.5712 35.716 26.7375 35.8284 26.9209 35.9051C27.1043 35.9819 27.3011 36.0214 27.4999 36.0214C27.6987 36.0214 27.8955 35.9819 28.0789 35.9051C28.2622 35.8284 28.4286 35.716 28.5681 35.5745C28.7077 35.4329 28.8177 35.265 28.8918 35.0806C28.966 34.8961 29.0027 34.6988 28.9999 34.5V19.5C29.0028 19.2992 28.9653 19.0999 28.8897 18.9139C28.8142 18.7279 28.702 18.5589 28.56 18.417C28.4179 18.2751 28.2488 18.1632 28.0627 18.0879C27.8766 18.0126 27.6772 17.9754 27.4764 17.9785V17.9785Z" fill="white"/>
</svg>
